<svg id="Capa_1" data-name="Capa 1" xmlns="http://www.w3.org/2000/svg" xmlns:xlink="http://www.w3.org/1999/xlink" viewBox="0 0 1626.91 299.25"><defs><style>.cls-1{fill:none;}.cls-2{fill:#1080e7;}.cls-3{fill:#020202;}.cls-4{clip-path:url(#clip-path);}.cls-5{fill:#ff8f20;}.cls-6{fill:#1081e8;}</style><clipPath id="clip-path" transform="translate(-15.39 -31.29)"><rect class="cls-1" x="-277.52" y="-665.34" width="1903.95" height="1070.97"/></clipPath></defs><title>LogoReadven2 - Lateral</title><path class="cls-2" d="M1396.28,268.43c-25-26.9-2.4-88.67,50.56-138S1563,63,1588.07,89.94c6.06,6.51,9.32,15.06,10,25,5-22.4,2.23-41.4-9.56-53.2-28.63-28.63-99.74-4-158.82,55.13S1346,247,1374.6,275.67C1390,291,1417.6,291,1449,278.61c-22.38,4.92-41.45,2-52.74-10.18" transform="translate(-15.39 -31.29)"/><path d="M1562.63,248.47c3.18-3.14,24.54-27.11,24.56-27.14-64.12-29.74-105.62,15.53-105.62,15.53v24.57h16.68c15.95-18.65,42.56-17.93,64.37-13h0" transform="translate(-15.39 -31.29)"/><path class="cls-2" d="M1626.39,52c-20.43-21-57-22-98-6.55,27.41-7.33,51.33-4.67,66.33,9.81,33.17,32,10.1,109.72-51.52,173.54s-138.45,89.6-171.62,57.58c-26.38-25.47-17.18-79.83,18.68-133.12-47.62,62.71-62.58,128.87-32,160.21,37.09,38,127.19,10.35,201.24-61.86S1663.48,90,1626.39,52" transform="translate(-15.39 -31.29)"/><path d="M1368.32,225.18l-9,30.67s-2.56,7.16,5.24,5.28c0,0,69.78-35.44,100.34.32h16.68V236.87s-44.81-48.89-113.25-11.69" transform="translate(-15.39 -31.29)"/><g id="Capa_3" data-name="Capa 3"><path class="cls-3" d="M1601.06,126.33c-0.52-.76-1.1-1.51-3.91-3.65s-4.08-3.12-5.25-3.91a44.09,44.09,0,0,0-6.53-3.91,29.9,29.9,0,0,0-6.15-2.2,33.36,33.36,0,0,0-8.53-.65,44.24,44.24,0,0,0-18.37,3.83c-2.9,1.31-3.49,2-6.09,2.81a16.2,16.2,0,0,1-6.53,1.07,14.3,14.3,0,0,1-7.81-3.22A17.44,17.44,0,0,1,1527,110c-1.2-2.58-1.43-4.61-3.59-7.29a17.14,17.14,0,0,0-1.57-1.7c-1.3-1.22-3.81-3.21-4.94-3.25l-0.17,0,0,0c0.6-.39,2.24-2.79,5.52-7.57a32,32,0,0,0,3.4-5.81,32.4,32.4,0,0,0,1.58-4.93c1.28-4.78,2.14-8.58,2.59-10.67a85.55,85.55,0,0,0,1.72-8.64c0.08-2.05.79-4.08,0.67-6.13a2.45,2.45,0,0,1,.31-1.44,3.91,3.91,0,0,1,1.71-1.17,11.72,11.72,0,0,0,3.94-6.26c1.19-5.3-2.38-9.46-2.59-9.7a11.45,11.45,0,0,0-4.18-2.9,13.48,13.48,0,0,0-11.83.31,8.31,8.31,0,0,0-2.85,2.54,7.18,7.18,0,0,0-1.22,2.44,5.1,5.1,0,0,1-.66,2.09,3.44,3.44,0,0,1-.93.88c-0.88.59-1.39,0.4-2.07,0.78a3.51,3.51,0,0,0-1.5,2.33,4.7,4.7,0,0,0,1.16,3.61c1.61,2.08,5.31,4.21,5.32,4.44,0,0,0,.05,0,0.05a1.5,1.5,0,0,1-.12.29c-0.08.18-.16,0.47-0.34,1a18.42,18.42,0,0,0-.44,2.09c-0.22,1.5-.48,1.81-1,4.27-0.35,1.54-.39,2-0.64,3.26a48.23,48.23,0,0,1-1.85,6.52,69.4,69.4,0,0,1-2.84,7,33.78,33.78,0,0,1-1.91,3.81c-1.08,1.76-1.46,1.88-3.81,4.93s-2.06,3-3.81,5.12c-0.6.72-1,1.18-1.3,1.5a7.14,7.14,0,0,0-4.62.2,5.74,5.74,0,0,0-1.63,1.07V90.94a25.68,25.68,0,1,0-30.36-13.1,24.21,24.21,0,0,0,14.76,12.87q1.08,0.36,2.19.63v1.39h-0.34a16.15,16.15,0,0,0-8.85-.3,15.6,15.6,0,0,0-5.7,2.78,7.54,7.54,0,0,0-2.34,2.87,7.67,7.67,0,0,0-.09,5.87l-2.71,2.84c-9.11,9.53-11,11.33-12.45,12.66s-3.8,3.4-6.67,5.64a21.4,21.4,0,0,1-2.41-1.81,22.37,22.37,0,0,1-5-6.28,22.89,22.89,0,0,1-1.78-4.31,13,13,0,0,0,2.83-2,9.35,9.35,0,0,0,2.69-3.78,8.06,8.06,0,0,0,.4-3.52,5,5,0,0,0-1.75-2.72,5.4,5.4,0,0,0-3.46-1.13,8.65,8.65,0,0,0-3.68-3.35,9.31,9.31,0,0,0-6.69-.39,10.56,10.56,0,0,0-4.54,4.87A11.29,11.29,0,0,0,1416,107c1,6.13,9.73,37.07,23.6,36.3,5.13-.29,10.64-4.9,13.59-7.36,2.74-2.29,6.46-4.81,5.79-1-0.73,4.21-1.39,6.47-2.43,10.7-2.25,9.17-4.6,20.58-5.25,23.75-2.74,13.29-2.21,12.9-4.31,21.92-0.77,3.3-1.14,5.24-1.89,9.13-1.69,8.82-2.37,13.27-.4,16.18,0.56,0.83,1.88,2.78,3.82,3,8.49,1.13,13.51-31.89,30.54-36.18a16.8,16.8,0,0,1,9.09.29c16.16,5.29,17.74,36.08,28.08,37.62,0.75,0.11,3.65.54,5.26-1.11,1-1.06,1.07-2.5,1-5.19a98.07,98.07,0,0,0-1.38-15.47c-0.35-1.86-.76-4-1.27-7.15-0.42-2.62-.43-3.18-1.29-7.29-1.7-8.13-3.46-14.67-3.91-16.18v0l5.07,4.32c0.87,0.67,1.42,1,2,1.57,0.21,0.18.27,0.25,0.69,0.65a9.51,9.51,0,0,0,2.19,1.86c0.7-.15.27-3.12,0.54-6.36,0.2-2.41.49-5.81,2.69-8.91a13.91,13.91,0,0,1,7.88-5.28,15.66,15.66,0,0,1,6.76.11,21.24,21.24,0,0,1,5.89,2,18.68,18.68,0,0,0,21.06-5.34c0.74-.82,5.53-6.27,5.57-12.51a40.71,40.71,0,0,1,.48-6.63,21.26,21.26,0,0,1,.73-3.09c0.82-2.61,1.59-4.26,3.19-5.33a7.88,7.88,0,0,1,4.09-1.2c0.94,0,2.26.05,5.52,1.37a45.65,45.65,0,0,1,5.34,2.57c4.78,2.7,6.87,4.87,7.86,4.26,0.36-.23.4-0.72,0.47-1.64A7.74,7.74,0,0,0,1601.06,126.33Zm-97.73,66.08h0Z" transform="translate(-15.39 -31.29)"/></g><g class="cls-4"><path class="cls-5" d="M174.36,232.67a35.65,35.65,0,0,1,2.55,32.79A34.78,34.78,0,0,1,169.11,277a38,38,0,0,1-11.49,7.66,34.49,34.49,0,0,1-13.91,2.84,39.84,39.84,0,0,1-17.6-4A29.93,29.93,0,0,1,113,271.27l-25.27-40.6v20.44a35.33,35.33,0,0,1-2.84,14.19,37.1,37.1,0,0,1-19.3,19.3,36.56,36.56,0,0,1-28.25,0,34.62,34.62,0,0,1-11.49-7.81,37.87,37.87,0,0,1-7.67-11.49,35.14,35.14,0,0,1-2.84-14.19V110.59a34.49,34.49,0,0,1,2.84-13.91,37.86,37.86,0,0,1,7.67-11.49,35.07,35.07,0,0,1,11.49-7.81,35.63,35.63,0,0,1,14.06-2.84H104a74.88,74.88,0,0,1,29.81,6,76.15,76.15,0,0,1,40.61,40.61,74.89,74.89,0,0,1,6,29.81,73.46,73.46,0,0,1-1.84,16.33,74.89,74.89,0,0,1-5.11,15A90.66,90.66,0,0,1,166,195.21a53.74,53.74,0,0,1-8.65,9.94ZM87.78,139.83v21.29h9.65a10.08,10.08,0,0,0,7.38-3.12,10.43,10.43,0,0,0,3.12-7.67,10.67,10.67,0,0,0-10.5-10.5H87.78Z" transform="translate(-15.39 -31.29)"/><path class="cls-5" d="M274.29,227a23.34,23.34,0,0,0,4.68,1.57,26.28,26.28,0,0,0,5.25.43q8.52,0,13.06-3.12a74.64,74.64,0,0,0,8.38-6.68,64.49,64.49,0,0,1,8.65-6.68q4.82-3.12,13.63-3.12a28.11,28.11,0,0,1,11.64,2.56,37.48,37.48,0,0,1,10.36,6.95,34.94,34.94,0,0,1,7.52,10.22,28.53,28.53,0,0,1,2.84,12.63q0,11.36-8.8,20.16a90.24,90.24,0,0,1-29.39,20.16q-16.61,7.1-37.9,7.1a87.89,87.89,0,0,1-35.2-7.1,91.12,91.12,0,0,1-48.26-48.26,87.89,87.89,0,0,1-7.1-35.2,87,87,0,0,1,7.1-35.07A91.51,91.51,0,0,1,249,115.41a88.07,88.07,0,0,1,35.2-7.1,86.82,86.82,0,0,1,27.68,4.41,94.85,94.85,0,0,1,23.41,11.36,62,62,0,0,1,16.18,15.47q6,8.52,6,16.47,0,9.1-8.52,15.61Zm-19.74-27c0.47,0.57.9,0.67,1.27,0.28l38-28.1a2.64,2.64,0,0,0,.85-1.14c0-.94-1.33-1.6-4-2a48.83,48.83,0,0,0-6.53-.57,28,28,0,0,0-12.21,2.7,31.54,31.54,0,0,0-9.65,6.95,32.41,32.41,0,0,0-6.25,9.65,27.51,27.51,0,0,0-2.27,10.79,2.54,2.54,0,0,0,.71,1.42" transform="translate(-15.39 -31.29)"/><path class="cls-6" d="M505.51,284.18a32.27,32.27,0,0,1-9.52-7.24,63.32,63.32,0,0,1-16.33,7.81,65,65,0,0,1-19.44,2.7,86.11,86.11,0,0,1-34.35-6.95,88.85,88.85,0,0,1-47.27-47.27,88.94,88.94,0,0,1,0-69A88.85,88.85,0,0,1,425.88,117,86.11,86.11,0,0,1,460.23,110a63.85,63.85,0,0,1,19.59,2.84A67.55,67.55,0,0,1,496,120.53a32.61,32.61,0,0,1,9.65-7.38,29.73,29.73,0,0,1,25-.72,31.54,31.54,0,0,1,16,16,28.34,28.34,0,0,1,2.41,11.64V257.36A28.26,28.26,0,0,1,546.68,269a31.77,31.77,0,0,1-6.53,9.52,31.36,31.36,0,0,1-9.52,6.53,29.38,29.38,0,0,1-25.12-.86m-25.12-65.43A28.79,28.79,0,1,0,460.24,227a27.42,27.42,0,0,0,20.16-8.23" transform="translate(-15.39 -31.29)"/><path class="cls-6" d="M670.17,111.44a84.51,84.51,0,0,1,12.63,3.41V104.63A28.32,28.32,0,0,1,685.2,93a31.54,31.54,0,0,1,16-16,29.34,29.34,0,0,1,23.28,0,31.53,31.53,0,0,1,16,16A28.32,28.32,0,0,1,743,104.63V257.36A28.25,28.25,0,0,1,740.57,269a31.78,31.78,0,0,1-6.53,9.52,31.37,31.37,0,0,1-9.52,6.53,30.13,30.13,0,0,1-23.28.14,29.71,29.71,0,0,1-9.08-6.25A102.24,102.24,0,0,1,675,285a81.22,81.22,0,0,1-20.58,2.41,86.11,86.11,0,0,1-34.35-6.95,88.85,88.85,0,0,1-47.27-47.27,89.07,89.07,0,0,1,0-69A88.85,88.85,0,0,1,620.07,117,86.11,86.11,0,0,1,654.42,110a81.36,81.36,0,0,1,15.75,1.42m4.39,107.31A28.79,28.79,0,1,0,654.41,227a27.42,27.42,0,0,0,20.16-8.23" transform="translate(-15.39 -31.29)"/><path class="cls-5" d="M857.67,287.46q-17.61,0-26.12-14.76L764,155.16a34.36,34.36,0,0,1-3.12-6.95,24.39,24.39,0,0,1-1.14-7.52A31,31,0,0,1,768.67,119a31.15,31.15,0,0,1,9.65-6.53A30,30,0,0,1,790.38,110a30.56,30.56,0,0,1,14.76,3.84,27,27,0,0,1,11.07,11.22l41.45,77.5,41.73-77.5a27.5,27.5,0,0,1,10.79-11.22A29.49,29.49,0,0,1,924.94,110a30.37,30.37,0,0,1,11.92,2.41,30,30,0,0,1,16.32,16.32,30.34,30.34,0,0,1,2.41,11.92,29.31,29.31,0,0,1-4,14.48L883.79,272.69q-8.52,14.75-26.12,14.76" transform="translate(-15.39 -31.29)"/><path class="cls-5" d="M1038.51,227a23.34,23.34,0,0,0,4.68,1.57,26.28,26.28,0,0,0,5.25.43q8.52,0,13.06-3.12a74.64,74.64,0,0,0,8.38-6.68,64.49,64.49,0,0,1,8.65-6.68q4.82-3.12,13.63-3.12a28.11,28.11,0,0,1,11.64,2.56,37.48,37.48,0,0,1,10.36,6.95,34.93,34.93,0,0,1,7.52,10.22,28.51,28.51,0,0,1,2.84,12.63q0,11.36-8.8,20.16a90.22,90.22,0,0,1-29.39,20.16q-16.61,7.1-37.9,7.1a87.89,87.89,0,0,1-35.2-7.1,91.11,91.11,0,0,1-48.26-48.26,87.89,87.89,0,0,1-7.1-35.2,87,87,0,0,1,7.1-35.07,91.5,91.5,0,0,1,48.26-48.11,88.08,88.08,0,0,1,35.2-7.1,86.82,86.82,0,0,1,27.68,4.41,94.84,94.84,0,0,1,23.42,11.36,62.06,62.06,0,0,1,16.18,15.47q6,8.52,6,16.47,0,9.1-8.52,15.61Zm-19.72-27c0.47,0.57.9,0.67,1.27,0.28l38-28.1a2.64,2.64,0,0,0,.85-1.14c0-.94-1.33-1.6-4-2a48.83,48.83,0,0,0-6.53-.57,28,28,0,0,0-12.21,2.7,31.54,31.54,0,0,0-9.65,6.95,32.41,32.41,0,0,0-6.25,9.65,27.51,27.51,0,0,0-2.27,10.79,2.47,2.47,0,0,0,.71,1.42" transform="translate(-15.39 -31.29)"/><path class="cls-5" d="M1141.27,191.5a79.77,79.77,0,0,1,6.38-31.66,81.37,81.37,0,0,1,43.45-43.45,79.34,79.34,0,0,1,31.66-6.38,80.34,80.34,0,0,1,31.93,6.38,81.37,81.37,0,0,1,43.45,43.45,79.34,79.34,0,0,1,6.38,31.66v65.86a28.25,28.25,0,0,1-2.41,11.64,33.08,33.08,0,0,1-6.38,9.52,29.68,29.68,0,0,1-21.3,8.94,28.24,28.24,0,0,1-11.64-2.41,31.53,31.53,0,0,1-16-16,28.08,28.08,0,0,1-2.41-11.64V191.5a20.34,20.34,0,0,0-6.38-15,21,21,0,0,0-15.19-6.25,21.32,21.32,0,0,0-21.29,21.29v65.86a28.25,28.25,0,0,1-2.41,11.64,31.77,31.77,0,0,1-6.53,9.52A31.36,31.36,0,0,1,1183,285a28.15,28.15,0,0,1-11.64,2.41,29.67,29.67,0,0,1-21.3-8.94,32.48,32.48,0,0,1-6.38-9.52,28.08,28.08,0,0,1-2.41-11.64V191.5h0Z" transform="translate(-15.39 -31.29)"/></g></svg>